<mxfile host="app.diagrams.net" modified="2023-09-26T02:00:15.553Z" agent="Mozilla/5.0 (Windows NT 10.0; Win64; x64) AppleWebKit/537.36 (KHTML, like Gecko) Chrome/116.0.0.0 Safari/537.36" etag="p4ldC0tZWPRBz2lNNMeg" version="21.8.2" type="device">
  <diagram name="PÃ¡gina-1" id="8nSbu9z32Ad8hdgeVQBU">
    <mxGraphModel dx="1114" dy="610" grid="1" gridSize="10" guides="1" tooltips="1" connect="1" arrows="1" fold="1" page="1" pageScale="1" pageWidth="827" pageHeight="1169" math="0" shadow="0">
      <root>
        <mxCell id="0" />
        <mxCell id="1" parent="0" />
        <mxCell id="qPdYVgStDCtIQRMbMY3u-1" value="" style="edgeStyle=orthogonalEdgeStyle;rounded=0;orthogonalLoop=1;jettySize=auto;html=1;" edge="1" parent="1" source="qPdYVgStDCtIQRMbMY3u-2" target="qPdYVgStDCtIQRMbMY3u-6">
          <mxGeometry relative="1" as="geometry" />
        </mxCell>
        <mxCell id="qPdYVgStDCtIQRMbMY3u-2" value="inicio&lt;br&gt;" style="strokeWidth=2;html=1;shape=mxgraph.flowchart.terminator;whiteSpace=wrap;" vertex="1" parent="1">
          <mxGeometry x="330" y="10" width="100" height="60" as="geometry" />
        </mxCell>
        <mxCell id="qPdYVgStDCtIQRMbMY3u-3" value="" style="edgeStyle=orthogonalEdgeStyle;rounded=0;orthogonalLoop=1;jettySize=auto;html=1;" edge="1" parent="1" source="qPdYVgStDCtIQRMbMY3u-4" target="qPdYVgStDCtIQRMbMY3u-9">
          <mxGeometry relative="1" as="geometry" />
        </mxCell>
        <mxCell id="qPdYVgStDCtIQRMbMY3u-4" value="nome1&lt;br&gt;nome2&lt;br&gt;ano1&lt;br&gt;ano 2&lt;br&gt;" style="html=1;strokeWidth=2;shape=manualInput;whiteSpace=wrap;rounded=1;size=26;arcSize=11;" vertex="1" parent="1">
          <mxGeometry x="220" y="280" width="300" height="140" as="geometry" />
        </mxCell>
        <mxCell id="qPdYVgStDCtIQRMbMY3u-5" value="" style="edgeStyle=orthogonalEdgeStyle;rounded=0;orthogonalLoop=1;jettySize=auto;html=1;" edge="1" parent="1" source="qPdYVgStDCtIQRMbMY3u-6" target="qPdYVgStDCtIQRMbMY3u-4">
          <mxGeometry relative="1" as="geometry" />
        </mxCell>
        <mxCell id="qPdYVgStDCtIQRMbMY3u-6" value="digite primeiro nome&lt;br&gt;digite segundo nome&lt;br&gt;digite ano de nascimento1&lt;br&gt;digite ano de nascimento 2" style="strokeWidth=2;html=1;shape=mxgraph.flowchart.display;whiteSpace=wrap;" vertex="1" parent="1">
          <mxGeometry x="220" y="100" width="290" height="130" as="geometry" />
        </mxCell>
        <mxCell id="qPdYVgStDCtIQRMbMY3u-7" style="edgeStyle=orthogonalEdgeStyle;rounded=0;orthogonalLoop=1;jettySize=auto;html=1;entryX=1;entryY=0.5;entryDx=0;entryDy=0;" edge="1" parent="1" source="qPdYVgStDCtIQRMbMY3u-9" target="qPdYVgStDCtIQRMbMY3u-10">
          <mxGeometry relative="1" as="geometry">
            <mxPoint x="670" y="886" as="targetPoint" />
            <Array as="points">
              <mxPoint x="660" y="535" />
              <mxPoint x="660" y="760" />
            </Array>
          </mxGeometry>
        </mxCell>
        <mxCell id="qPdYVgStDCtIQRMbMY3u-8" value="" style="edgeStyle=orthogonalEdgeStyle;rounded=0;orthogonalLoop=1;jettySize=auto;html=1;" edge="1" parent="1" source="qPdYVgStDCtIQRMbMY3u-9" target="qPdYVgStDCtIQRMbMY3u-10">
          <mxGeometry relative="1" as="geometry" />
        </mxCell>
        <mxCell id="qPdYVgStDCtIQRMbMY3u-9" value="iidade1&amp;gt;idade2" style="strokeWidth=2;html=1;shape=mxgraph.flowchart.decision;whiteSpace=wrap;" vertex="1" parent="1">
          <mxGeometry x="240" y="470" width="190" height="130" as="geometry" />
        </mxCell>
        <mxCell id="qPdYVgStDCtIQRMbMY3u-15" value="" style="edgeStyle=orthogonalEdgeStyle;rounded=0;orthogonalLoop=1;jettySize=auto;html=1;" edge="1" parent="1" source="qPdYVgStDCtIQRMbMY3u-10" target="qPdYVgStDCtIQRMbMY3u-13">
          <mxGeometry relative="1" as="geometry" />
        </mxCell>
        <mxCell id="qPdYVgStDCtIQRMbMY3u-10" value="ano1-2003&lt;br&gt;2023- ano2&lt;br&gt;" style="rounded=1;whiteSpace=wrap;html=1;absoluteArcSize=1;arcSize=14;strokeWidth=2;" vertex="1" parent="1">
          <mxGeometry x="240" y="720" width="180" height="100" as="geometry" />
        </mxCell>
        <mxCell id="qPdYVgStDCtIQRMbMY3u-11" value="&lt;span style=&quot;color: rgb(0, 0, 0); font-family: Helvetica; font-size: 22px; font-style: normal; font-variant-ligatures: normal; font-variant-caps: normal; font-weight: 400; letter-spacing: normal; orphans: 2; text-align: center; text-indent: 0px; text-transform: none; widows: 2; word-spacing: 0px; -webkit-text-stroke-width: 0px; background-color: rgb(251, 251, 251); text-decoration-thickness: initial; text-decoration-style: initial; text-decoration-color: initial; float: none; display: inline !important;&quot;&gt;v&lt;/span&gt;" style="text;whiteSpace=wrap;html=1;fontSize=22;" vertex="1" parent="1">
          <mxGeometry x="240" y="660" width="40" height="40" as="geometry" />
        </mxCell>
        <mxCell id="qPdYVgStDCtIQRMbMY3u-12" value="&lt;span style=&quot;color: rgb(0, 0, 0); font-family: Helvetica; font-size: 22px; font-style: normal; font-variant-ligatures: normal; font-variant-caps: normal; font-weight: 400; letter-spacing: normal; orphans: 2; text-align: center; text-indent: 0px; text-transform: none; widows: 2; word-spacing: 0px; -webkit-text-stroke-width: 0px; background-color: rgb(251, 251, 251); text-decoration-thickness: initial; text-decoration-style: initial; text-decoration-color: initial; float: none; display: inline !important;&quot;&gt;F&lt;/span&gt;" style="text;whiteSpace=wrap;html=1;fontSize=22;" vertex="1" parent="1">
          <mxGeometry x="600" y="490" width="40" height="40" as="geometry" />
        </mxCell>
        <mxCell id="qPdYVgStDCtIQRMbMY3u-16" value="" style="edgeStyle=orthogonalEdgeStyle;rounded=0;orthogonalLoop=1;jettySize=auto;html=1;" edge="1" parent="1" source="qPdYVgStDCtIQRMbMY3u-13" target="qPdYVgStDCtIQRMbMY3u-14">
          <mxGeometry relative="1" as="geometry" />
        </mxCell>
        <mxCell id="qPdYVgStDCtIQRMbMY3u-13" value="nome lua&lt;br&gt;nome leo&lt;br&gt;ano1 2003&lt;br&gt;ano2 2000&lt;br&gt;idade 1 20 anos&lt;br&gt;idade2 23 anos" style="strokeWidth=2;html=1;shape=mxgraph.flowchart.display;whiteSpace=wrap;" vertex="1" parent="1">
          <mxGeometry x="230" y="860" width="200" height="190" as="geometry" />
        </mxCell>
        <mxCell id="qPdYVgStDCtIQRMbMY3u-14" value="fim" style="strokeWidth=2;html=1;shape=mxgraph.flowchart.terminator;whiteSpace=wrap;" vertex="1" parent="1">
          <mxGeometry x="280" y="1089" width="100" height="80" as="geometry" />
        </mxCell>
      </root>
    </mxGraphModel>
  </diagram>
</mxfile>
